<svg width="128" height="128" viewBox="0 0 128 128" fill="none" xmlns="http://www.w3.org/2000/svg">
<path d="M64 128C99.3462 128 128 99.3462 128 64C128 28.6538 99.3462 0 64 0C28.6538 0 0 28.6538 0 64C0 99.3462 28.6538 128 64 128Z" fill="url(#paint0_linear_1385_3957)"/>
<path d="M64 128C99.3462 128 128 99.3462 128 64C128 28.6538 99.3462 0 64 0C28.6538 0 0 28.6538 0 64C0 99.3462 28.6538 128 64 128Z" fill="#BBFF00" fill-opacity="0.5"/>
<path d="M70.5844 35.5556C70.5844 31.9191 67.6364 28.9712 64 28.9712C60.3636 28.9712 57.4156 31.9191 57.4156 35.5556V64C57.4156 65.7463 58.1093 67.421 59.3442 68.6558L73.5664 82.8781C76.1377 85.4494 80.3067 85.4494 82.8781 82.8781C85.4494 80.3067 85.4494 76.1377 82.8781 73.5664L70.5844 61.2727V35.5556ZM121.416 64C121.416 95.7098 95.7098 121.416 64 121.416C32.2902 121.416 6.58436 95.7098 6.58436 64C6.58436 32.2902 32.2902 6.58436 64 6.58436C95.7098 6.58436 121.416 32.2902 121.416 64Z" stroke="white" stroke-opacity="0.9" stroke-width="13.1687" stroke-linecap="round" stroke-linejoin="round"/>
<defs>
<linearGradient id="paint0_linear_1385_3957" x1="23" y1="11" x2="125" y2="120.5" gradientUnits="userSpaceOnUse">
<stop/>
<stop offset="1" stop-color="white"/>
</linearGradient>
</defs>
</svg>
