<svg xmlns="http://www.w3.org/2000/svg" version="1.1" xmlns:xlink="http://www.w3.org/1999/xlink" xmlns:svgjs="http://svgjs.dev/svgjs" width="64" height="64" viewBox="0 0 64 64"><svg width="64" height="64" viewBox="0 0 1600 1600" fill="none" xmlns="http://www.w3.org/2000/svg"><path fill="#fff" d="M1331.232 691.68h-614.68l-16.244 83.3h581.14l-23.36 119.092c193.68 -270.052 251.88 -546.608 123.16 -675.328 -147.596 -147.588 -489.536 -49.44 -793.192 216.896h791.952z"/><path fill="#fff" d="M626.144 1161.06H219.752l73.388 -382.528C139.292 1024.34 101.552 1264.068 218.736 1381.248c160.508 160.512 550.856 30.384 871.88 -290.628a1636 1636 0 0 0 94.88 -103.312H659.68z"/><path fill="#fff" d="m358.952 435.66 229.104 -0.02a1660 1660 0 0 0 -78.668 73.756c-86.632 86.632 -159.372 178.284 -216.248 269.136z"/></svg></svg>